# xmcd
#
# Track frame offsets:
#	187
#	18659
#	24464
#	40832
#	57122
#	73124
#	86679
#	100839
#	157009
#	190409
#	202357
#	224087
#	238262
#	257347
#	271837
#
# Disc length: 4273 seconds
#
# Revision: 1
# Processed by: cddbd v1.5.1PL0 Copyright (c) Steve Scherf et al.
# Submitted via: CDex 1.50Beta5
#
DISCID=e010af0f
DTITLE=パトリック・ガロワ - フルート名曲集〈New Best One〉
DYEAR=1995
DGENRE=Easy Listening
TTITLE0=小舟にて
TTITLE1=熊蜂の飛行
TTITLE2=ボカリーズ
TTITLE3=愛の悲しみ
TTITLE4=ユーモレスク
TTITLE5=トロイメライ
TTITLE6=白鳥
TTITLE7=アルルの女
TTITLE8=牧神の午後への前奏曲
TTITLE9=亜麻色の髪の乙女
TTITLE10=アベ・マリア
TTITLE11=G線上のアリア
TTITLE12=タイスの瞑想曲
TTITLE13=シチリアーノ
TTITLE14=ハンガリー田園幻想曲
EXTD=
EXTT0=
EXTT1=
EXTT2=
EXTT3=
EXTT4=
EXTT5=
EXTT6=
EXTT7=
EXTT8=
EXTT9=
EXTT10=
EXTT11=
EXTT12=
EXTT13=
EXTT14=
PLAYORDER=
